# xmcd
#
# Track frame offsets: 
#        168
#        16613
#        30081
#        45277
#        64758
#        81805
#        94279
#        116209
#        143514
#        161203
#        177685
#        193558
#        214800
#
# Disc length: 3337 seconds
#
# Revision: 0
# Processed by: cddbd v1.5.2PL0 Copyright (c) Steve Scherf et al.
# Submitted via: ExactAudioCopyFreeDBPlugin 1.0
#
DISCID=a70d070d
DTITLE=Saltbrennt - Saltbrennt
DYEAR=2018
DGENRE=Blues
TTITLE0=Baby Please Don't Go
TTITLE1=Mobilphone Blues
TTITLE2=Ships Ain't Built for the Harbor
TTITLE3=Hey Man
TTITLE4=Dear Brother
TTITLE5=Sugar and Salt
TTITLE6=Just You Fool
TTITLE7=Livin' in Sarnia
TTITLE8=Skilehrer Blues
TTITLE9=Going Up the Country
TTITLE10=Am I Wrong
TTITLE11=Why You Been Gone So Long
TTITLE12=Ofenbankl
EXTD=
EXTT0=
EXTT1=
EXTT2=
EXTT3=
EXTT4=
EXTT5=
EXTT6=
EXTT7=
EXTT8=
EXTT9=
EXTT10=
EXTT11=
EXTT12=
PLAYORDER=
